# xmcd CD database file
#
# Track frame offsets:
#	150
#	17116
#	33499
#	49470
#	60205
#	76581
#	91146
#	115962
#	130342
#	136985
#
# Disc length: 2075 seconds
#
# Revision: 0
# Processed by: cddbd v1.5.1PL2 Copyright (c) Steve Scherf et al.
# Submitted via: CDex 1.40Beta8
#
DISCID=7a08190a
DTITLE=David Bowers - Whiskey Follows The Plow
DYEAR=2005
DGENRE=Blues
TTITLE0=Slow Dance
TTITLE1=Whiskey Follows The Plow
TTITLE2=Strobelight Friend
TTITLE3=The Kiss
TTITLE4=True Love Part 2
TTITLE5=Sorry I Messed With You
TTITLE6=Exit Idaho
TTITLE7=Beach and Last Sunday
TTITLE8=Hanging Time
TTITLE9=North Central Town (Live at the Domino Room 1-05)
EXTD=YEAR: 2005 ID3G: 0
EXTT0=
EXTT1=
EXTT2=
EXTT3=
EXTT4=
EXTT5=
EXTT6=
EXTT7=
EXTT8=
EXTT9=
PLAYORDER=
